<?xml version="1.0" encoding="UTF-8"?>
<svg width="282px" height="237px" viewBox="0 0 282 237" version="1.1" xmlns="http://www.w3.org/2000/svg" xmlns:xlink="http://www.w3.org/1999/xlink">
    <!-- Generator: Sketch 50.2 (55047) - http://www.bohemiancoding.com/sketch -->
    <title>undraw_app_installation_mbdv (1)</title>
    <desc>Created with Sketch.</desc>
    <defs>
        <linearGradient x1="49.9990906%" y1="99.9986219%" x2="49.9990906%" y2="5.94155337e-06%" id="linearGradient-1">
            <stop stop-color="#808080" stop-opacity="0.25" offset="0%"></stop>
            <stop stop-color="#808080" stop-opacity="0.12" offset="54%"></stop>
            <stop stop-color="#808080" stop-opacity="0.1" offset="100%"></stop>
        </linearGradient>
        <linearGradient x1="49.990264%" y1="99.9993906%" x2="49.990264%" y2="0.00841935186%" id="linearGradient-2">
            <stop stop-color="#808080" stop-opacity="0.25" offset="0%"></stop>
            <stop stop-color="#808080" stop-opacity="0.12" offset="54%"></stop>
            <stop stop-color="#808080" stop-opacity="0.1" offset="100%"></stop>
        </linearGradient>
    </defs>
    <g id="Page-1" stroke="none" stroke-width="1" fill="none" fill-rule="evenodd">
        <g id="Desktop" transform="translate(-371.000000, -540.000000)">
            <g id="undraw_app_installation_mbdv-(1)" transform="translate(371.000000, 540.000000)">
                <path d="M28.5783137,7.00676148 C17.9748678,8.91135281 5.79880242,12.30547 1.50930661,22.7409819 C-2.41050626,32.2816009 2.18999267,43.029148 5.28535388,52.9024081 C8.33574585,62.6500424 9.91799522,72.8001168 9.97974054,83.0167346 C10.0589583,97.3880095 7.26873224,112.542316 12.9372041,125.600688 C19.333306,140.334042 35.162191,148.856131 40.7103692,163.95745 C43.0370246,170.289407 43.3186878,177.21894 44.4277367,183.910032 C46.8864217,198.737584 53.6023286,212.740893 63.4605406,223.588527 C70.015078,230.800658 78.5500597,236.85296 88.0033808,236.997203 C95.1740565,237.109065 101.945709,233.844472 108.588266,230.986113 C116.337729,227.652741 124.28082,224.792116 132.374137,222.419867 C135.783435,221.421944 139.295423,220.503501 142.822081,220.815536 C149.617206,221.404282 155.285678,226.408617 161.734591,228.763599 C179.21238,235.122049 197.2799,221.304195 215.720038,219.84705 C231.528385,218.595966 247.407148,226.570522 262.9397,223.241167 C265.228213,222.749565 267.675162,221.857615 268.875165,219.738132 C270.861477,216.226266 268.396924,211.366173 270.163187,207.724782 C271.92945,204.083392 276.697187,203.706595 279.496215,200.936548 C282.345121,198.116458 282.576906,193.247533 281.12458,189.417745 C279.672254,185.587956 276.870292,182.538255 274.176888,179.556259 C260.845441,164.785478 248.571306,149.087694 237.446246,132.580265 C226.097566,115.745091 215.476517,95.9426396 218.6687,75.5396682 C219.77188,68.5188795 222.482889,61.8748878 223.712231,54.8776489 C224.941574,47.88041 224.436927,39.9558971 219.927382,34.6748509 C217.233978,31.5191757 213.454996,29.6970087 209.787507,27.9602098 C175.583032,11.7608805 138.934542,-4.82702079 101.901699,1.30476241 C95.8723465,2.30268584 89.9046074,3.90407329 83.8048388,4.12190909 C74.9764579,4.4398316 66.6673935,0.48051887 58.044392,1.76692754 C48.2536618,3.21818492 38.3602419,5.2493565 28.5783137,7.00676148 Z" id="Shape" fill="#FFC107" fill-rule="nonzero" opacity="0.1"></path>
                <path d="M56,50 C56,50 44.0651391,43.4398605 40.525015,33.3904707 C39.0682269,29.1646589 36.2813405,25.5261663 32.5829498,23.0214991 C30.8180671,21.8456826 28.9492682,20.8342864 27,20" id="Shape" stroke="#535461" stroke-width="2"></path>
                <path d="M23.721089,13.7338557 C24.818238,14.8325384 26,20 26,20 C26,20 20.8216825,18.79173 19.7245335,17.6902374 C18.7182177,16.576873 18.7656975,14.8727283 19.8324558,13.8166931 C20.8992141,12.760658 22.6099971,12.7242141 23.721089,13.7338557 Z" id="Shape" fill="#FFC107" fill-rule="nonzero"></path>
                <path d="M33.9591927,16.2069117 C34.3045164,17.7942192 32.344653,23 32.344653,23 C32.344653,23 28.3855473,19.0052761 28.0402236,17.4150291 C27.7784882,15.8641198 28.8201927,14.3877711 30.4049094,14.0636944 C31.989626,13.7396176 33.5567132,14.6824648 33.9622219,16.2039722 L33.9591927,16.2069117 Z" id="Shape" fill="#FFC107" fill-rule="nonzero"></path>
                <path d="M44.830437,27.8948186 C44.3063044,29.4417537 39.9294957,33 39.9294957,33 C39.9294957,33 38.5980784,27.5783329 39.122211,26.0284401 C39.6470842,24.476564 41.3537794,23.6363229 42.9342216,24.1517091 C44.5146637,24.6670954 45.3703714,26.3429426 44.8454983,27.8948186 L44.830437,27.8948186 Z" id="Shape" fill="#FFC107" fill-rule="nonzero"></path>
                <path d="M50.9406426,37.3985219 C50.6917973,38.943464 47.0070889,43 47.0070889,43 C47.0070889,43 44.7704798,38.0902024 45.0193251,36.5452604 C45.1322669,35.5051962 45.8415322,34.6083491 46.8647093,34.2118209 C47.8878864,33.8152928 49.0588441,33.9834671 49.9113363,34.6493812 C50.7638286,35.3152953 51.1594379,36.3708258 50.9406426,37.3956872 L50.9406426,37.3985219 Z" id="Shape" fill="#FFC107" fill-rule="nonzero"></path>
                <path d="M27.8887554,27.9937978 C29.4651138,27.9757986 34,24.9219436 34,24.9219436 C34,24.9219436 29.3994322,21.9820832 27.8230738,22.0000823 C26.2459022,22.0191352 24.9820553,23.3776627 25.0001928,25.0344383 C25.0183303,26.6912138 26.3115838,28.0188504 27.8887554,27.9997975 L27.8887554,27.9937978 Z" id="Shape" fill="#FFC107" fill-rule="nonzero"></path>
                <path d="M35.8117136,39.8797741 C37.3786658,39.3608554 41,34.9728063 41,34.9728063 C41,34.9728063 35.5246384,33.598127 33.9576862,34.1170457 C32.4487546,34.6809436 31.6494021,36.3548081 32.14823,37.9060926 C32.647058,39.4573771 34.2654532,40.3306191 35.8117136,39.8828087 L35.8117136,39.8797741 Z" id="Shape" fill="#FFC107" fill-rule="nonzero"></path>
                <path d="M44.3680539,49.9437491 C45.9179746,49.7038314 50,46.0450861 50,46.0450861 C50,46.0450861 45.0947566,43.7778636 43.5476747,44.0177813 C42.5099201,44.1307828 41.6144601,44.8360506 41.215644,45.8544975 C40.816828,46.8729445 40.9789302,48.0404349 41.6378041,48.894972 C42.2966779,49.749509 43.3461374,50.1533731 44.3708926,49.9467481 L44.3680539,49.9437491 Z" id="Shape" fill="#FFC107" fill-rule="nonzero"></path>
                <path d="M45,90 C45,90 33.0651391,83.4398605 29.525015,73.3904707 C28.0682269,69.1646589 25.2813405,65.5261663 21.5829498,63.0214991 C19.8180671,61.8456826 17.9492682,60.8342864 16,60" id="Shape" stroke="#535461" stroke-width="2"></path>
                <path d="M13.721089,53.7338557 C14.818238,54.8325384 16,60 16,60 C16,60 10.8216825,58.79173 9.72453352,57.6902374 C8.71821771,56.576873 8.76569755,54.8727283 9.83245583,53.8166931 C10.8992141,52.760658 12.6099971,52.7242141 13.721089,53.7338557 Z" id="Shape" fill="#FFC107" fill-rule="nonzero"></path>
                <path d="M22.9591927,57.2069117 C23.3045164,58.7942192 21.344653,64 21.344653,64 C21.344653,64 17.3855473,60.0052761 17.0402236,58.4150291 C16.7784882,56.8641198 17.8201927,55.3877711 19.4049094,55.0636944 C20.989626,54.7396176 22.5567132,55.6824648 22.9622219,57.2039722 L22.9591927,57.2069117 Z" id="Shape" fill="#FFC107" fill-rule="nonzero"></path>
                <path d="M33.8311797,67.8944028 C33.3069803,69.4414638 28.9296142,73 28.9296142,73 C28.9296142,73 27.5980272,67.5778912 28.1222266,66.0278722 C28.4618032,65.0239026 29.3210807,64.2740757 30.3763774,64.0608442 C31.4316741,63.8476127 32.5226655,64.2033715 33.2383856,64.9941096 C33.9541057,65.7848477 34.1858196,66.8904332 33.8462429,67.8944028 L33.8311797,67.8944028 Z" id="Shape" fill="#FFC107" fill-rule="nonzero"></path>
                <path d="M39.9406426,78.3985219 C39.6917973,79.943464 36.0070889,84 36.0070889,84 C36.0070889,84 33.7704798,79.0902024 34.0193251,77.5452604 C34.1322669,76.5051962 34.8415322,75.6083491 35.8647093,75.2118209 C36.8878864,74.8152928 38.0588441,74.9834671 38.9113363,75.6493812 C39.7638286,76.3152953 40.1594379,77.3708258 39.9406426,78.3956872 L39.9406426,78.3985219 Z" id="Shape" fill="#FFC107" fill-rule="nonzero"></path>
                <path d="M17.8887553,67.9937978 C19.4651138,67.9757986 24,64.9219436 24,64.9219436 C24,64.9219436 19.3994322,61.9820832 17.8230737,62.0000823 C16.2459021,62.0191353 14.9820553,63.3776627 15.0001928,65.0344383 C15.0183303,66.6912138 16.3115837,68.0188503 17.8887553,67.9997975 L17.8887553,67.9937978 Z" id="Shape" fill="#FFC107" fill-rule="nonzero"></path>
                <path d="M24.9311791,79.812145 C26.4620506,79.2991949 30,74.9616171 30,74.9616171 C30,74.9616171 24.6507141,73.6027494 23.1198425,74.1156994 C22.0910756,74.4171536 21.3050646,75.2718619 21.0709125,76.3437058 C20.8367605,77.4155496 21.1919218,78.5330793 21.9967274,79.2568203 C22.801533,79.9805614 23.927248,80.1947459 24.9311791,79.8151447 L24.9311791,79.812145 Z" id="Shape" fill="#FFC107" fill-rule="nonzero"></path>
                <path d="M33.3680539,90.9437491 C34.9179746,90.7038314 39,87.0450861 39,87.0450861 C39,87.0450861 34.0947566,84.7778636 32.5476747,85.0177813 C31.5099201,85.1307828 30.6144601,85.8360506 30.215644,86.8544975 C29.816828,87.8729445 29.9789302,89.0404349 30.6378041,89.894972 C31.2966779,90.749509 32.3461374,91.1533731 33.3708926,90.9467481 L33.3680539,90.9437491 Z" id="Shape" fill="#FFC107" fill-rule="nonzero"></path>
                <path d="M185.442135,1.27149242e-05 L48.5578654,1.27149242e-05 C45.2320002,-0.00466361345 42.0404901,1.30762826 39.6854328,3.6481984 C37.3303755,5.98876855 36.0046854,9.16588913 36,12.4806282 L36,201.516435 C36.0039046,204.831684 37.3292501,208.009559 39.6843921,210.350764 C42.0395342,212.691969 45.2314903,214.004664 48.5578654,213.999988 L185.442135,213.999988 C188.768,214.004664 191.95951,212.692372 194.314567,210.351802 C196.669625,208.011232 197.995315,204.834111 198,201.519372 L198,12.4776916 C197.988618,5.57625156 192.366742,-0.00972609542 185.442135,1.27149242e-05 Z" id="Shape" fill="url(#linearGradient-1)" fill-rule="nonzero"></path>
                <rect id="Rectangle-path" fill="#535461" fill-rule="nonzero" x="38" y="3" width="158" height="210" rx="20"></rect>
                <rect id="Rectangle-path" fill="#F1F1F4" fill-rule="nonzero" x="46" y="22" width="142" height="170"></rect>
                <circle id="Oval" fill="#FFFFFF" fill-rule="nonzero" cx="116" cy="12" r="2"></circle>
                <circle id="Oval" fill="#FFFFFF" fill-rule="nonzero" cx="117" cy="202" r="6"></circle>
                <rect id="Rectangle-path" fill="#FFC107" fill-rule="nonzero" x="63" y="45" width="28" height="28" rx="11.85"></rect>
                <rect id="Rectangle-path" fill="#FFC107" fill-rule="nonzero" opacity="0.2" transform="translate(157.000000, 59.000000) rotate(-180.000000) translate(-157.000000, -59.000000) " x="143" y="45" width="28" height="28" rx="11.85"></rect>
                <rect id="Rectangle-path" fill="#FFC107" fill-rule="nonzero" x="103" y="45" width="28" height="28" rx="11.85"></rect>
                <rect id="Rectangle-path" fill="#FFC107" fill-rule="nonzero" x="63" y="93" width="28" height="28" rx="11.85"></rect>
                <rect id="Rectangle-path" fill="#FFC107" fill-rule="nonzero" opacity="0.2" transform="translate(157.000000, 107.000000) rotate(-180.000000) translate(-157.000000, -107.000000) " x="143" y="93" width="28" height="28" rx="11.85"></rect>
                <rect id="Rectangle-path" fill="#FFC107" fill-rule="nonzero" opacity="0.2" x="103" y="93" width="28" height="28" rx="11.85"></rect>
                <rect id="Rectangle-path" fill="#FFC107" fill-rule="nonzero" x="63" y="142" width="28" height="28" rx="11.85"></rect>
                <rect id="Rectangle-path" fill="#FFC107" fill-rule="nonzero" transform="translate(157.000000, 156.000000) rotate(-180.000000) translate(-157.000000, -156.000000) " x="143" y="142" width="28" height="28" rx="11.85"></rect>
                <rect id="Rectangle-path" fill="#FFC107" fill-rule="nonzero" x="103" y="142" width="28" height="28" rx="11.85"></rect>
                <path d="M231.864893,81.7402433 C231.810737,81.4258357 231.69223,81.1260982 231.516846,80.8599358 C231.30907,80.6167654 231.07895,80.3937493 230.829526,80.1938365 C229.449037,78.8909815 230.191927,76.543495 229.65962,74.732996 C229.074667,72.799254 227.027332,71.3174031 225.249075,70.3314588 C224.961726,70.1649655 224.652618,70.0395338 224.330699,69.9587953 C223.928341,69.8941247 223.521485,69.8617442 223.113997,69.8619615 C222.477062,69.8235233 221.850688,69.6807886 221.259696,69.4394139 C220.414439,69.0931596 219.659849,68.5591064 218.794119,68.2656706 C218.625868,68.2037798 218.446355,68.1787657 218.267661,68.1923117 C217.322962,68.1042809 217.29079,69.2838929 216.275897,69.9675984 C215.854731,70.2610342 215.454038,70.6659756 215.454038,71.1706852 C215.454038,71.8602594 216.155981,72.3150849 216.781881,72.6173238 C217.407781,72.9195627 217.551094,72.8608755 217.673934,72.8579411 L217.72658,72.8579411 C217.811398,72.8726129 217.904991,72.9459719 218.147746,73.2129985 C214.267026,73.820506 211.398841,77.1629892 211.376916,81.1034876 C211.375947,82.2160755 211.610208,83.3162163 212.064236,84.3312816 C212.037913,84.5190805 212.008665,84.7127481 211.976493,84.9181532 C211.669392,86.8108142 211.099063,89.0937448 210.122192,90.9834715 C209.320806,91.1477956 208.814822,91.2769073 208.814822,91.2769073 C208.822764,91.3155856 208.827654,91.354832 208.829446,91.3942816 L208.536969,91.6114241 L207.308568,92.4917316 C204.889788,88.4687266 202.418362,83.474449 202.31892,79.7243392 C202.31892,79.7243392 202.026443,79.92681 201.529233,80.2437206 L201.529233,77.5793234 L201.371296,77.5499798 L201.529233,77.256544 L202.669891,75.0909877 C203.099346,74.2763812 203.330844,73.3714831 203.345512,72.4500654 C203.398158,69.0462099 203.287017,60.6539456 200.941355,59.2601254 C197.984418,57.4995105 197.393616,65.1112356 195.817168,69.0109976 C194.647262,71.9189465 195.232215,76.1326849 195.589036,78.084033 C195.615359,78.2160791 195.638757,78.3363878 195.662155,78.4478934 C194.700457,78.8115215 193.76519,79.241959 192.863155,79.7360767 C193.48613,79.9825628 193.951168,81.9397797 194.208547,83.3482716 C194.23487,83.4979238 194.261193,83.6417074 194.284591,83.7737535 C193.689331,83.9613744 193.08265,84.1103566 192.468312,84.2197759 L197.551553,95.3468621 C196.466465,96.6086361 194.202697,98.8182078 192.468312,97.6738081 C190.102177,96.1127296 182.816588,96.8932688 182.816588,96.8932688 C182.816588,96.8932688 178.651724,85.7984606 178.850608,82.4767672 C178.850608,82.4767672 178.63125,82.5882728 178.265655,82.770203 L178.265655,79.7448797 C178.130464,79.8364334 177.988714,79.917839 177.841564,79.9884315 L177.996576,79.7126018 L178.221783,79.3105947 C178.651233,78.5488225 178.906953,77.7009786 178.970523,76.8281277 C179.216203,73.4154692 179.575949,64.6534757 176.885166,63.5589601 C173.533385,62.1944836 172.54774,71.9424214 172.54774,71.9424214 L173.261382,80.7689707 L173.276006,80.9655727 C171.684934,81.1064219 170.377564,81.1064219 170.377564,81.1064219 C170.778257,81.5025603 170.906947,83.6886571 170.962517,85.0590024 C170.962517,85.1998516 170.962517,85.3289633 170.962517,85.449272 C170.149433,85.5901212 169.453339,85.6018586 169,85.3964536 L174.323072,99.8246926 C174.323072,99.8246926 174.717915,103.345922 181.617435,104.895264 C185.674084,105.813718 188.502331,106.655878 190.146049,107.207538 C187.332425,113.897874 177.569561,138.018298 180.432905,143.887015 C180.432905,143.887015 181.965482,143.300143 183.533156,142.783696 C183.895827,147.84253 184.524651,155.504139 185.288015,160.41332 C184.454457,162.998489 183.825632,165.16698 183.620899,166.408214 C183.60335,166.510916 183.588726,166.60775 183.577027,166.701649 C182.992074,171.381951 178.253956,180.352284 185.352359,187.955206 C185.352359,187.955206 190.280588,190.889564 190.675431,194.390253 C191.00593,197.342217 196.214936,204.701588 197.864503,206.972781 C196.545434,209.246908 192.825133,215.244736 189.490902,216.814618 C185.352359,218.765966 188.701215,221.494919 192.643798,220.92272 C196.586381,220.35052 209.607433,210.97818 209.607433,210.97818 C209.607433,210.97818 209.516765,204.85124 208.282515,204.405217 L207.097985,201.952094 C207.755425,201.849584 208.399111,201.672383 209.016631,201.42391 C214.339702,199.278894 221.634066,195.379132 221.634066,195.379132 C221.634066,195.379132 221.777379,190.798599 219.70957,189.120146 C218.650806,185.842468 213.7489,182.899306 213.7489,182.899306 C213.7489,182.899306 210.195311,173.729437 201.520459,171.188283 C201.520459,171.188283 200.119496,169.207591 200.172142,166.939332 C200.742471,165.841883 201.12854,165.143505 201.12854,165.143505 L205.615129,154.462442 C206.776635,153.423351 207.764148,152.203736 208.539894,150.850247 C208.606189,150.72896 208.670534,150.606695 208.732929,150.483452 C211.438336,150.803297 213.55879,151.123142 213.55879,151.123142 L213.362831,141.762539 C211.5758,122.448594 217.097756,116.794086 217.097756,116.794086 C217.097756,116.794086 224.99462,107.239816 225.772608,100.414499 C226.500874,94.1144317 221.183652,93.797521 220.361793,93.7857835 C220.204943,92.851516 220.239776,91.8949621 220.46416,90.9746684 L220.557752,91.0421587 C220.724623,91.1792853 220.928092,91.2640017 221.142705,91.2857104 C221.185503,91.2898365 221.228597,91.2898365 221.271395,91.2857104 L221.341589,91.2857104 C221.535358,91.2765612 221.7236,91.2179844 221.88852,91.1155176 C223.950479,90.0298051 225.556175,88.0667195 227.819943,87.5003884 C228.293755,87.383014 228.78804,87.3301956 229.253078,87.177609 C230.305726,86.8050282 231.154457,86.006733 231.592889,84.9768403 C232.017829,83.9528489 232.112936,82.8211637 231.864893,81.7402433 Z M202.909722,185.029651 C203.304565,186.394127 209.613283,191.074428 209.613283,191.074428 L209.856038,192.755816 C208.238623,194.292897 206.536669,195.737886 204.758173,197.083994 L202.514879,192.438905 C202.514879,192.438905 199.163098,181.713826 196.206161,180.545951 C195.65923,180.328809 195.483744,179.665644 195.559788,178.735452 C197.481359,180.146879 202.582148,183.935135 202.900948,185.038454 L202.909722,185.029651 Z" id="Shape" fill="url(#linearGradient-2)" fill-rule="nonzero"></path>
                <path d="M191.60639,106.045534 C191.60639,106.045534 178.268439,137.256462 181.506908,144 C181.506908,144 186.843252,141.881611 187.617226,142.26704 C188.391199,142.652469 196,102 196,102 L191.60639,106.045534 Z" id="Shape" fill="#575988" fill-rule="nonzero"></path>
                <path d="M191.60639,106.045534 C191.60639,106.045534 178.268439,137.256462 181.506908,144 C181.506908,144 186.843252,141.881611 187.617226,142.26704 C188.391199,142.652469 196,102 196,102 L191.60639,106.045534 Z" id="Shape" fill="#000000" fill-rule="nonzero" opacity="0.05"></path>
                <path d="M198.277223,205.694508 C198.277223,205.694508 193.761764,214.122593 189.812175,215.990099 C185.862585,217.857604 189.059598,220.48584 192.82248,219.922442 C196.585362,219.359045 209,210.370422 209,210.370422 C209,210.370422 208.913827,204.487636 207.733259,204.058653 C206.552691,203.62967 198.277223,205.694508 198.277223,205.694508 Z" id="Shape" fill="#575988" fill-rule="nonzero"></path>
                <path d="M211.325712,191.231149 C211.325712,191.231149 204.72858,197.58339 201.815291,198.145561 C198.902002,198.707731 204.337375,202.443168 209.577146,200.388535 C214.816917,198.333902 221.997893,194.595611 221.997893,194.595611 C221.997893,194.595611 222.190532,188.602931 218.891965,188.055029 C215.593399,187.507127 211.325712,191.231149 211.325712,191.231149 Z" id="Shape" fill="#575988" fill-rule="nonzero"></path>
                <path d="M184,137.720788 C184,137.720788 185.352797,161.140506 187.095484,164.397398 C188.83817,167.654289 195.413119,177.641895 195.413119,177.641895 C195.413119,177.641895 202.956884,183.018258 203.343819,184.360883 C203.730754,185.703508 209.918768,190.311819 209.918768,190.311819 L210.305704,193 C210.305704,193 220.558016,192.413701 219.976136,188.969194 C219.394256,185.524686 213.980113,182.250206 213.980113,182.250206 C213.980113,182.250206 210.497694,173.227062 201.988068,170.73236 C201.988068,170.73236 199.27952,166.8921 201.601133,163.822825 C201.601133,163.822825 207.405164,149.42625 210.692639,147.699599 C213.980113,145.972948 209.336888,136 209.336888,136 L184,137.720788 Z" id="Shape" fill="#67647E" fill-rule="nonzero"></path>
                <path d="M184,137.720788 C184,137.720788 185.352797,161.140506 187.095484,164.397398 C188.83817,167.654289 195.413119,177.641895 195.413119,177.641895 C195.413119,177.641895 202.956884,183.018258 203.343819,184.360883 C203.730754,185.703508 209.918768,190.311819 209.918768,190.311819 L210.305704,193 C210.305704,193 220.558016,192.413701 219.976136,188.969194 C219.394256,185.524686 213.980113,182.250206 213.980113,182.250206 C213.980113,182.250206 210.497694,173.227062 201.988068,170.73236 C201.988068,170.73236 199.27952,166.8921 201.601133,163.822825 C201.601133,163.822825 207.405164,149.42625 210.692639,147.699599 C213.980113,145.972948 209.336888,136 209.336888,136 L184,137.720788 Z" id="Shape" fill="#000000" fill-rule="nonzero" opacity="0.05"></path>
                <path d="M202.224658,192.695554 L208.312092,205.671272 C207.364192,208.963265 198.250434,207.800863 198.250434,207.800863 C198.250434,207.800863 191.226695,198.117138 190.846955,194.629933 C190.467215,191.142727 185.721915,188.238201 185.721915,188.238201 C178.889496,180.684067 183.443476,171.775277 184.014535,167.125669 C184.014535,167.036936 184.040624,166.93933 184.055118,166.829893 C184.559505,163.712408 187.63221,154.744462 190.020803,148.027376 C191.632523,143.501995 192.934075,140 192.934075,140 C192.934075,140 205.651014,140.591553 208.297598,145.22933 C209.515085,147.358921 208.970114,149.574288 208.022214,151.348947 C207.280547,152.690022 206.333217,153.901277 205.216197,154.936717 L200.894119,165.566927 C200.894119,165.566927 193.305118,179.716878 196.163313,180.882238 C199.021509,182.047597 202.224658,192.695554 202.224658,192.695554 Z" id="Shape" fill="#67647E" fill-rule="nonzero"></path>
                <path d="M179.847252,77.2050335 C179.790455,78.0642078 179.558392,78.8996073 179.167403,79.6524032 L178.961803,80.0485601 L177.950253,82 L174.718228,82 L174.649695,81.0903062 L174,72.39246 C174,72.39246 174.896414,62.7849199 177.950253,64.1289191 C180.398259,65.2088137 180.072041,73.842101 179.847252,77.2050335 Z" id="Shape" fill="#F7C4A7" fill-rule="nonzero"></path>
                <path d="M179,81 L177.827082,83 L174.079466,83 L174,82.0676692 C175.745073,81.9233083 177.820725,81.6225564 179,81 Z" id="Shape" fill="#000000" fill-rule="nonzero" opacity="0.1"></path>
                <path d="M180,81 L180,85.1813975 L172.601527,87 C172.601527,87 172.601527,86.5640907 172.580153,85.9588154 C172.537405,84.6816289 172.406107,82.6436835 172,82.27441 C172.003053,82.279963 178,82.279963 180,81 Z" id="Shape" fill="#E6E6F0" fill-rule="nonzero"></path>
                <path d="M179,83 L179,84.9499218 L172.020165,87 C172.020165,87 172.020165,86.5086072 172,85.8262911 C174.324691,85.3849765 177.680658,83.6979656 179,83 Z" id="Shape" fill="#000000" fill-rule="nonzero" opacity="0.1"></path>
                <path d="M219.961879,90.758242 C218.596237,94.9150289 220.370429,96.7825709 220.370429,96.7825709 C220.370429,96.7825709 203.53132,97.9663515 207.648245,94.8096032 C210.050975,92.9661586 211.116633,88.8997366 211.585179,85.8393775 C211.784471,84.5696587 211.907566,83.2879459 211.953731,82.00188 C211.953731,82.00188 225.410162,81.7940406 222.618881,85.7490125 C221.497459,87.2670772 220.601547,88.9561334 219.961879,90.758242 Z" id="Shape" fill="#F7C4A7" fill-rule="nonzero"></path>
                <path d="M223.600858,85.4967562 C222.159385,87.3159544 221.687903,87.5834836 221.198402,88.8957845 C220.755908,88.9660978 220.307834,89.0009555 219.859033,88.9999801 C216.486586,88.9999801 213.204231,88.3494618 212,85.5925034 C212.209607,84.4045033 212.338997,83.2052756 212.387396,82.0019806 C212.387396,82.0019806 226.528851,81.7992216 223.600858,85.4967562 Z" id="Shape" fill="#000000" fill-rule="nonzero" opacity="0.1"></path>
                <circle id="Oval" fill="#F7C4A7" fill-rule="nonzero" cx="220" cy="82" r="8"></circle>
                <path d="M179.66841,83 C179.66841,83 172.126223,86.8484136 170,85.8848414 L175.22106,100.121034 C175.22106,100.121034 175.607914,103.584606 182.376392,105.115159 C189.14487,106.645711 192.431657,108 192.431657,108 L205,93.1880141 L198.618377,94.9183314 C198.618377,94.9183314 195.33159,99.5364277 193.007509,97.9970623 C190.683429,96.4576968 183.536956,97.233255 183.536956,97.233255 C183.536956,97.233255 179.47646,86.2726204 179.66841,83 Z" id="Shape" fill="#575988" fill-rule="nonzero"></path>
                <path d="M179.66841,83 C179.66841,83 172.126223,86.8484136 170,85.8848414 L175.22106,100.121034 C175.22106,100.121034 175.607914,103.584606 182.376392,105.115159 C189.14487,106.645711 192.431657,108 192.431657,108 L205,93.1880141 L198.618377,94.9183314 C198.618377,94.9183314 195.33159,99.5364277 193.007509,97.9970623 C190.683429,96.4576968 183.536956,97.233255 183.536956,97.233255 C183.536956,97.233255 179.47646,86.2726204 179.66841,83 Z" id="Shape" fill="#000000" fill-rule="nonzero" opacity="0.05"></path>
                <path d="M208.809916,92.779091 C208.809916,92.779091 218.935392,89.8806989 220,95.2646819 C220,95.2646819 215.320404,92.9811002 208.616883,97.0212832 C208.113826,97.3140501 207.622469,97.6448767 207.154509,97.9815586 C201.255293,102.118355 197.134324,108.521167 195.478917,115.793496 L191.200012,134.559854 L190.81687,139.604227 C190.81687,139.604227 184.6749,140.816282 183.540098,138.9982 C182.405296,137.180117 183.156956,131.125698 184.879632,129.108534 C186.602309,127.09137 189.275528,118.404977 189.275528,118.404977 L190.951408,113.369386 C192.354275,109.133979 194.584223,105.219961 197.511617,101.854865 L197.915232,101.365944 C200.438017,98.3353874 203.636889,95.9406059 207.253951,94.3746706 C208.233741,93.9501586 208.944455,93.4143952 208.809916,92.779091 Z" id="Shape" fill="#000000" fill-rule="nonzero" opacity="0.1"></path>
                <path d="M208.809916,91.779091 C208.809916,91.779091 218.935392,88.8806989 220,94.2646819 C220,94.2646819 215.320404,91.9811002 208.616883,96.0212832 C208.113826,96.3140501 207.622469,96.6448767 207.154509,96.9815586 C201.255293,101.118355 197.134324,107.521167 195.478917,114.793496 L191.200012,133.559854 L190.81687,138.604227 C190.81687,138.604227 184.6749,139.816282 183.540098,137.9982 C182.405296,136.180117 183.156956,130.125698 184.879632,128.108534 C186.602309,126.09137 189.284302,117.410832 189.284302,117.410832 L190.960182,112.375242 C192.36305,108.139835 194.592997,104.225817 197.520391,100.86072 L197.924006,100.371799 C200.446791,97.3412427 203.645663,94.9464612 207.262725,93.3805259 C208.233741,92.9501586 208.944455,92.4143952 208.809916,91.779091 Z" id="Shape" fill="#E6E6F0" fill-rule="nonzero"></path>
                <path d="M183,130.673968 L183.08629,134 L185.814832,132.263269 C185.814832,132.263269 190.673838,114.73968 194.095674,109.962932 C194.497368,109.399747 194.690776,108.559393 195.068666,108.41786 L209,95.0960404 L209,92 C209,92 201.888533,97.2131424 201.302358,98.1920809 C201.052415,98.6019377 197.318151,100.624684 195.053788,103.79444 C193.037245,106.712679 191.246811,109.778185 189.697871,112.964617 L185.020371,123.390901 L183,130.673968 Z" id="Shape" fill="#000000" fill-rule="nonzero" opacity="0.1"></path>
                <path d="M209,92 L209,94.9934696 L194.978192,108.412471 C194.606088,108.554034 194.411177,109.394565 194.012494,109.957868 C190.613358,114.738572 185.79373,132.262903 185.79373,132.262903 L183.085643,134 L183,130.673267 L185.019991,123.382768 L189.662426,112.954287 C191.199694,109.767152 192.976708,106.700996 194.978192,103.782178 C197.210813,100.614704 200.920036,98.5915315 201.179918,98.1786391 C201.681963,97.346956 207.133576,93.3595955 208.633803,92.280177 L209,92 Z" id="Shape" fill="#787C9C" fill-rule="nonzero"></path>
                <path d="M217.300645,73.4037635 C216.690138,73.1072674 216,72.6476984 216,71.9627924 C216,71.4617139 216.392258,71.0466193 216.805161,70.7768079 C217.908203,70.0207428 217.822673,68.6538957 219.090875,69.0808501 C219.940276,69.3773462 220.680553,69.9080743 221.506359,70.2520098 C222.084602,70.4924565 222.698539,70.6347321 223.323133,70.6730342 C223.718263,70.672971 224.112763,70.7046985 224.502857,70.767913 C224.813441,70.8496539 225.11122,70.9743868 225.38765,71.1385331 C227.148366,72.1288713 228.455967,73.7699194 229.032995,75.7134682 C229.557972,77.5161646 229.504884,79.6509367 230.855668,80.9466247 C231.09993,81.1453496 231.325068,81.3667189 231.52811,81.6078111 C231.701188,81.8775116 231.816682,82.1803994 231.867281,82.4972994 C232.110549,83.5734856 232.01786,84.6989024 231.601843,85.7202122 C231.174401,86.7435114 230.338381,87.5387714 229.298433,87.9113185 C228.84129,88.0625316 228.360553,88.1129359 227.894562,88.2315343 C225.676682,88.794877 224.1047,90.7517513 222.081474,91.8309972 C221.919971,91.9327719 221.735099,91.9909786 221.5447,92 C221.33629,91.9766236 221.139342,91.892064 220.978433,91.7568732 C220.196866,91.1964955 219.553917,90.3247969 219.574562,89.3582196 C219.637527,88.7546434 219.8126,88.1683058 220.090691,87.6296472 C220.514024,86.6212434 220.83803,85.5735579 221.058064,84.5016132 C221.128034,84.2553395 221.135134,83.9953098 221.07871,83.7455481 C220.931244,83.2741193 220.412166,83.0547121 220.05235,82.7196715 C219.368111,82.0822049 219.28553,80.9970291 219.53917,80.0927159 C219.792811,79.1884027 220.323687,78.3908282 220.718894,77.5398843 C220.85499,77.284261 220.934473,77.0020666 220.951889,76.7126602 C220.951889,75.57708 219.424147,74.9603681 218.781198,74.2102329 C217.943594,73.1843564 218.495115,73.9967557 217.300645,73.4037635 Z" id="Shape" fill="#000000" fill-rule="nonzero" opacity="0.1"></path>
                <path d="M217.300645,73.4066038 C216.690138,73.1099164 216,72.6500511 216,71.9647033 C216,71.4633017 216.392258,71.0479394 216.805161,70.7779539 C217.908203,70.0214011 217.822673,68.6536724 219.090875,69.0809022 C219.940276,69.3775896 220.680553,69.9086599 221.506359,70.2528173 C222.084602,70.4934191 222.698539,70.6357864 223.323133,70.6741133 C223.72129,70.6978483 225.010138,70.0807386 225.38765,70.1756786 C225.698234,70.2574721 225.996012,70.3822855 226.272442,70.5465377 C228.033159,71.5375146 229.34076,73.1796212 229.917788,75.1244235 C230.442765,76.9282826 230.07705,79.1831065 231.427834,80.4647958 C231.65493,80.6843445 231.345253,81.3548579 231.52811,81.6011084 C231.701188,81.8709829 231.816682,82.174066 231.867281,82.4911704 C232.110549,83.5680507 232.01786,84.6941934 231.601843,85.7161619 C231.174401,86.7401211 230.338381,87.535894 229.298433,87.9086814 C228.84129,88.059992 228.360553,88.1104288 227.894562,88.2291038 C225.676682,88.7928097 224.1047,90.7509463 222.081474,91.8308882 C221.919971,91.9327285 221.735099,91.9909727 221.5447,92 C221.33629,91.9766085 221.139342,91.8919943 220.978433,91.7567164 C220.196866,91.1959773 219.553917,90.3237165 219.574562,89.3565157 C219.637527,88.7525503 219.8126,88.1658345 220.090691,87.6268285 C220.514024,86.6177742 220.83803,85.569413 221.058064,84.4967769 C221.128034,84.2503444 221.135134,83.990147 221.07871,83.7402242 C220.931244,83.2684913 220.412166,83.0489427 220.05235,82.713686 C219.368111,82.0758082 219.28553,80.9899325 219.53917,80.085036 C219.792811,79.1801396 220.323687,78.3820506 220.718894,77.530558 C220.85499,77.2747697 220.934473,76.9923933 220.951889,76.7028002 C220.951889,75.5664877 219.424147,74.949378 218.781198,74.198759 C217.943594,73.1870552 218.495115,73.9999785 217.300645,73.4066038 Z" id="Shape" fill="#B96B6B" fill-rule="nonzero"></path>
                <path d="M209.024694,151 C205.544464,150.592911 201.159373,150.194423 199.233646,150.51264 C196.13334,151.022935 191.783052,148.290852 191,147.780558 C192.612507,143.394318 193.914693,140 193.914693,140 C193.914693,140 206.637836,140.573365 209.285712,145.068543 C210.518293,147.132656 209.973057,149.279906 209.024694,151 Z" id="Shape" fill="#000000" fill-rule="nonzero" opacity="0.1"></path>
                <path d="M224.93474,100.933158 C224.175109,107.673434 216.581695,117.107468 216.581695,117.107468 C216.581695,117.107468 211.264277,122.694957 212.974897,141.757117 L213.163355,151 C213.163355,151 201.960243,149.267878 198.544802,149.844272 C195.129361,150.420666 190.191758,146.956422 190.191758,146.956422 C190.191758,146.956422 188.28978,113.637343 196.465964,106.711798 C197.469289,105.134914 198.561252,103.617903 199.736437,102.168287 C201.92835,99.4774701 204.908888,96.4455221 207.698069,95.698563 C208.056932,95.6002995 208.425512,95.5430882 208.796925,95.5279976 C208.796925,95.5279976 217.341327,90.7139347 219.620221,94.3722696 C219.617321,94.3869735 225.691472,94.1928818 224.93474,100.933158 Z" id="Shape" fill="#575988" fill-rule="nonzero"></path>
                <path d="M190,137 C190,137 193.117434,135.704751 198.376617,136.075226 C203.635799,136.445701 213,132 213,132" id="Shape" fill="#000000" fill-rule="nonzero" opacity="0.1"></path>
                <path d="M195.996396,180 C195.996396,180 196.201644,180.610998 193.514475,181.399185 C190.827307,182.187373 190,183 190,183" id="Shape" fill="#000000" fill-rule="nonzero" opacity="0.05"></path>
                <rect id="Rectangle-path" fill="#FFC107" fill-rule="nonzero" transform="translate(189.000000, 63.000000) rotate(-180.000000) translate(-189.000000, -63.000000) " x="175" y="49" width="28" height="28" rx="11.85"></rect>
                <path d="M203.991055,73.3580401 C203.97789,74.2726142 203.753678,75.1714393 203.336282,75.9829001 L202.231353,78.1348123 L201.465503,79.612774 L196.680399,80 C196.680399,80 196.581014,79.6009503 196.458244,78.9417794 C196.101627,77.0056496 195.53747,72.8230179 196.680399,69.9350808 C198.2121,66.0628211 198.785026,58.5133927 201.649658,60.2573875 C203.935516,61.6466715 204.043671,69.9794196 203.991055,73.3580401 Z" id="Shape" fill="#F7C4A7" fill-rule="nonzero"></path>
                <path d="M202,78.1276263 L202,78.1851493 L201.204051,79.6232243 L196.230886,80 C196.230886,80 196.127595,79.6117197 196,78.9703383 C197.780253,78.3289568 200.113418,77.7307176 202,78.1276263 Z" id="Shape" fill="#000000" fill-rule="nonzero" opacity="0.1"></path>
                <path d="M201,78.1258044 L201,81.4750621 L194.45505,85 C194.45505,85 194.380076,84.3964536 194.241236,83.6143934 C194.00243,82.2741236 193.5748,80.4096468 193,80.1772956 C193,80.1687949 197.726137,77.383414 201,78.1258044 Z" id="Shape" fill="#E6E6F0" fill-rule="nonzero"></path>
                <path d="M220.490698,109.990478 C218.794196,111.474504 216.550532,112.187607 214.301408,111.957617 C202.18583,110.736134 201.85854,106.485605 201.85854,106.485605 L200,102.383047 C202.209208,99.7282797 205.213264,96.7369518 208.024452,96 C210.032026,99.2118332 211.823355,101.53004 211.823355,101.53004 C211.823355,101.53004 220.817988,94.6914754 223.497676,101.149958 C225.049381,104.92466 222.711595,108.043649 220.490698,109.990478 Z" id="Shape" fill="#000000" fill-rule="nonzero" opacity="0.05"></path>
                <path d="M202,81 L202,82.3497653 L195.221446,86 C195.221446,86 195.143796,85.375 195,84.5651408 C197.921939,83.5997653 200.812243,81.7893192 202,81 Z" id="Shape" fill="#000000" fill-rule="nonzero" opacity="0.1"></path>
                <path d="M202.529265,81 C202.529265,81 197.383345,84.6529229 193,85.4222684 L201.95879,105.419379 C201.95879,105.419379 202.287686,109.721253 214.352073,110.957492 C216.591224,111.189054 218.824582,110.467437 220.513788,108.96659 C222.725834,106.996243 225.048484,103.839578 223.49423,100.03396 C220.825221,93.4974598 211.866431,100.418633 211.866431,100.418633 C211.866431,100.418633 202.718453,88.3058459 202.529265,81 Z" id="Shape" fill="#575988" fill-rule="nonzero"></path>
                <rect id="Rectangle-path" fill="#FFC107" fill-rule="nonzero" x="233" y="210" width="46" height="4" rx="2"></rect>
                <rect id="Rectangle-path" fill="#FFC107" fill-rule="nonzero" x="228" y="206" width="46" height="4" rx="2"></rect>
                <rect id="Rectangle-path" fill="#000000" fill-rule="nonzero" opacity="0.05" x="228" y="206" width="46" height="4" rx="2"></rect>
            </g>
        </g>
    </g>
</svg>